<svg xmlns="http://www.w3.org/2000/svg" xmlns:xlink="http://www.w3.org/1999/xlink" width="500" zoomAndPan="magnify" viewBox="0 0 375 374.999991" height="500" preserveAspectRatio="xMidYMid meet" version="1.2"><defs><clipPath id="177952c4b9"><path d="M 17.25 0 L 357.75 0 C 362.324219 0 366.710938 1.816406 369.949219 5.050781 C 373.183594 8.289062 375 12.675781 375 17.25 L 375 357.75 C 375 362.324219 373.183594 366.710938 369.949219 369.949219 C 366.710938 373.183594 362.324219 375 357.75 375 L 17.25 375 C 12.675781 375 8.289062 373.183594 5.050781 369.949219 C 1.816406 366.710938 0 362.324219 0 357.75 L 0 17.25 C 0 12.675781 1.816406 8.289062 5.050781 5.050781 C 8.289062 1.816406 12.675781 0 17.25 0 Z M 17.25 0 "/></clipPath><clipPath id="776382b683"><path d="M 97.644531 50.316406 L 277.644531 50.316406 L 277.644531 324.816406 L 97.644531 324.816406 Z M 97.644531 50.316406 "/></clipPath></defs><g id="ad085a9297"><g clip-rule="nonzero" clip-path="url(#177952c4b9)"><rect x="0" width="375" y="0" height="374.999991" style="fill:#000000;fill-opacity:1;stroke:none;"/></g><g clip-rule="nonzero" clip-path="url(#776382b683)"><path style=" stroke:none;fill-rule:nonzero;fill:#1db954;fill-opacity:1;" d="M 187.5 50.316406 C 137.902344 50.316406 97.695312 90.523438 97.695312 140.121094 C 97.695312 205.234375 187.5 324.675781 187.5 324.675781 C 187.5 324.675781 277.304688 205.234375 277.304688 140.121094 C 277.304688 90.523438 237.097656 50.316406 187.5 50.316406 "/></g><path style=" stroke:none;fill-rule:nonzero;fill:#1db954;fill-opacity:1;" d="M 241.722656 140.121094 C 241.722656 170.066406 217.445312 194.34375 187.5 194.34375 C 157.554688 194.34375 133.277344 170.066406 133.277344 140.121094 C 133.277344 110.175781 157.554688 85.898438 187.5 85.898438 C 217.445312 85.898438 241.722656 110.175781 241.722656 140.121094 "/><path style="fill:none;stroke-width:11;stroke-linecap:round;stroke-linejoin:miter;stroke:#000000;stroke-opacity:1;stroke-miterlimit:4;" d="M 7.731599 7.589171 C 49.630373 33.652803 91.534357 33.63196 133.438342 7.531853 " transform="matrix(0,0.749668,-0.749668,0,153.224512,108.39137)"/><path style="fill:none;stroke-width:11;stroke-linecap:round;stroke-linejoin:miter;stroke:#000000;stroke-opacity:1;stroke-miterlimit:4;" d="M 7.728336 7.590111 C 49.632321 33.653743 91.536305 33.632901 133.435079 7.527583 " transform="matrix(0,0.749668,-0.749668,0,174.850217,110.772722)"/><path style="fill:none;stroke-width:11;stroke-linecap:round;stroke-linejoin:miter;stroke:#000000;stroke-opacity:1;stroke-miterlimit:4;" d="M 7.729703 7.587316 C 49.633688 33.650948 91.532461 33.635316 133.436446 7.529999 " transform="matrix(0,-0.749668,0.749668,0,222.644066,218.950958)"/><path style="fill:none;stroke-width:11;stroke-linecap:round;stroke-linejoin:miter;stroke:#000000;stroke-opacity:1;stroke-miterlimit:4;" d="M 7.73161 7.588275 C 49.630384 33.651908 91.534368 33.631065 133.438353 7.530958 " transform="matrix(0,-0.749668,0.749668,0,201.018346,216.569575)"/></g></svg>